M48
; DRILL file {KiCad (5.1.6)-1} date 06/04/21 15:22:23
; FORMAT={-:-/ absolute / inch / decimal}
; #@! TF.CreationDate,2021-06-04T15:22:23-05:00
; #@! TF.GenerationSoftware,Kicad,Pcbnew,(5.1.6)-1
; #@! TF.FileFunction,Plated,1,2,PTH
FMAT,2
INCH
T1C0.0315
T2C0.0400
T3C0.0432
T4C0.0591
%
G90
G05
T1
X1.475Y-1.7136
X1.4752Y-1.4029
X1.575Y-1.7136
X1.5752Y-1.4029
X1.675Y-1.7136
X1.6752Y-1.4029
X1.775Y-1.7136
X1.7752Y-1.4029
X1.875Y-1.7136
X1.8752Y-1.4029
X1.975Y-1.7136
X1.9752Y-1.4029
X2.075Y-1.7136
X2.0752Y-1.4029
T2
X0.8217Y-1.0524
X0.8217Y-1.1524
X0.9217Y-1.0524
X0.9217Y-1.1524
X1.0217Y-1.0524
X1.0217Y-1.1524
X1.1217Y-1.0524
X1.1217Y-1.1524
X1.2217Y-1.0524
X1.2217Y-1.1524
X1.3217Y-1.0524
X1.3217Y-1.1524
X1.4217Y-1.0524
X1.4217Y-1.1524
X1.5217Y-1.0524
X1.5217Y-1.1524
X1.6217Y-1.0524
X1.6217Y-1.1524
X1.7217Y-1.0524
X1.7217Y-1.1524
X1.8217Y-1.0524
X1.8217Y-1.1524
X1.9217Y-1.0524
X1.9217Y-1.1524
X2.0217Y-1.0524
X2.0217Y-1.1524
X2.1217Y-1.0524
X2.1217Y-1.1524
X2.2217Y-1.0524
X2.2217Y-1.1524
X2.3217Y-1.0524
X2.3217Y-1.1524
X2.4217Y-1.0524
X2.4217Y-1.1524
X2.5217Y-1.0524
X2.5217Y-1.1524
X2.6217Y-1.0524
X2.6217Y-1.1524
X2.7217Y-1.0524
X2.7217Y-1.1524
T3
X1.775Y-2.02
X1.875Y-2.02
X2.205Y-2.02
X2.305Y-2.02
X2.405Y-2.02
X2.915Y-1.46
X2.915Y-1.56
X2.915Y-1.66
X1.145Y-2.02
X1.245Y-2.02
X1.345Y-2.02
X1.675Y-2.02
T4
X0.66Y-1.4616
X0.66Y-1.6584
T0
M30
