<svg width="860" height="420" viewBox="0 0 860 420" xmlns="http://www.w3.org/2000/svg" xmlns:xlink="http://www.w3.org/1999/xlink"><defs><path d="M20.511 0H839.49c7.132 0 9.718.743 12.326 2.137a14.538 14.538 0 016.048 6.048C859.257 10.793 860 13.38 860 20.511V399.49c0 7.132-.743 9.718-2.137 12.326a14.538 14.538 0 01-6.048 6.048c-2.608 1.394-5.194 2.137-12.326 2.137H20.51c-7.132 0-9.718-.743-12.326-2.137a14.538 14.538 0 01-6.048-6.048C.743 409.207 0 406.62 0 399.489V20.51c0-7.132.743-9.718 2.137-12.326a14.538 14.538 0 016.048-6.048C10.793.743 13.38 0 20.511 0z" id="a"/><path d="M159.758.623V67h-8.513l-.28-.007c-.735-.038-1.358-.228-1.87-.57-.577-.384-.984-.96-1.22-1.729l-1.064-3.503-.462.48a26.669 26.669 0 01-2.42 2.18 18.126 18.126 0 01-3.26 2.063 17.236 17.236 0 01-3.768 1.33c-1.345.31-2.801.465-4.368.465-2.394 0-4.611-.532-6.65-1.596-2.04-1.064-3.8-2.601-5.277-4.611-1.478-2.01-2.638-4.471-3.48-7.383-.843-2.911-1.265-6.23-1.265-9.954 0-3.43.473-6.614 1.42-9.555.945-2.942 2.283-5.484 4.012-7.627a18.634 18.634 0 016.23-5.032c2.424-1.212 5.099-1.818 8.025-1.818 2.365 0 4.368.347 6.008 1.042a17.342 17.342 0 014.457 2.727V.623h13.745zm61.538 19.687c3.488 0 6.666.547 9.533 1.64 2.867 1.094 5.328 2.661 7.383 4.7 2.054 2.04 3.65 4.516 4.788 7.428 1.138 2.911 1.707 6.185 1.707 9.82 0 3.666-.569 6.97-1.707 9.91-1.138 2.942-2.734 5.44-4.788 7.494-2.055 2.055-4.516 3.636-7.383 4.745-2.867 1.108-6.045 1.662-9.533 1.662-3.518 0-6.718-.554-9.6-1.662-2.882-1.109-5.365-2.69-7.449-4.745-2.084-2.054-3.695-4.552-4.833-7.493-1.138-2.941-1.707-6.245-1.707-9.91 0-3.636.569-6.91 1.707-9.821 1.138-2.912 2.75-5.388 4.833-7.427 2.084-2.04 4.567-3.607 7.45-4.7 2.881-1.094 6.081-1.641 9.599-1.641zM318.312.623V67h-8.513l-.281-.007c-.734-.038-1.358-.228-1.87-.57-.576-.384-.983-.96-1.22-1.729l-1.063-3.503-.462.48a26.669 26.669 0 01-2.42 2.18 18.126 18.126 0 01-3.26 2.063 17.236 17.236 0 01-3.768 1.33c-1.345.31-2.801.465-4.368.465-2.394 0-4.611-.532-6.651-1.596s-3.798-2.601-5.276-4.611c-1.478-2.01-2.639-4.471-3.481-7.383-.843-2.911-1.264-6.23-1.264-9.954 0-3.43.473-6.614 1.42-9.555.945-2.942 2.283-5.484 4.012-7.627a18.634 18.634 0 016.23-5.032c2.424-1.212 5.099-1.818 8.025-1.818 2.365 0 4.368.347 6.008 1.042a17.342 17.342 0 014.456 2.727V.623h13.746zM40.438 2.397L65.446 67H53.829l-.296-.005c-1.168-.043-2.141-.345-2.919-.904-.842-.606-1.426-1.382-1.751-2.328l-3.814-11.262H20.485l-3.813 11.262-.088.224c-.315.739-.862 1.41-1.641 2.015-.858.665-1.907.998-3.149.998H.09L25.096 2.397h15.342zM93.603 20.31c2.512 0 4.737.436 6.673 1.308 1.936.872 3.57 2.084 4.9 3.636 1.33 1.552 2.335 3.4 3.015 5.542.68 2.143 1.02 4.471 1.02 6.984V67H95.464V37.78l-.005-.37c-.054-2.07-.57-3.698-1.547-4.884-1.034-1.257-2.557-1.885-4.567-1.885a9.565 9.565 0 00-4.257.976c-1.33.65-2.6 1.522-3.813 2.616V67H67.531V21.02h8.513l.28.007c.735.037 1.358.227 1.87.569.577.384.983.96 1.22 1.73l.798 2.66.536-.49a33.137 33.137 0 012.213-1.816 16.1 16.1 0 013.037-1.796 18.028 18.028 0 013.503-1.153c1.257-.28 2.624-.421 4.102-.421zm100.289-.177c2.099 0 3.784.502 5.055 1.507l-1.774 10.11-.044.2c-.128.515-.35.884-.665 1.108-.355.251-.828.377-1.42.377-.502 0-1.093-.067-1.773-.2-.68-.133-1.537-.2-2.572-.2-3.606 0-6.444 1.922-8.513 5.765V67h-13.745V21.02h8.158l.285.003a6.44 6.44 0 011.422.174c.459.118.843.303 1.153.554.31.251.547.584.71.998.162.414.303.916.421 1.507l.754 4.301.318-.481c1.604-2.375 3.39-4.269 5.357-5.682 2.099-1.508 4.39-2.261 6.873-2.261zm72.542.886V67h-13.745V21.02h13.745zm-45.138 9.49c-3.252 0-5.631 1.108-7.139 3.325-1.507 2.217-2.261 5.601-2.261 10.154 0 4.552.754 7.944 2.261 10.176 1.508 2.231 3.887 3.347 7.139 3.347 3.163 0 5.49-1.116 6.983-3.347 1.493-2.232 2.24-5.624 2.24-10.176 0-4.553-.747-7.937-2.24-10.154-1.492-2.217-3.82-3.326-6.983-3.326zm-82.466-.267c-1.272 0-2.44.251-3.503.754-1.065.502-1.988 1.308-2.772 2.416-.783 1.109-1.396 2.55-1.84 4.324-.443 1.773-.665 3.916-.665 6.429 0 2.424.178 4.463.532 6.119.355 1.655.85 2.993 1.486 4.013.635 1.02 1.396 1.751 2.283 2.194.887.444 1.877.666 2.971.666 1.005 0 1.914-.097 2.727-.289a9.586 9.586 0 002.239-.82 9.77 9.77 0 001.929-1.33 16.686 16.686 0 001.796-1.862v-19.51l-.268-.281c-.985-1.004-2.027-1.716-3.124-2.136a10.515 10.515 0 00-3.791-.687zm158.553 0c-1.27 0-2.438.251-3.503.754-1.064.502-1.987 1.308-2.77 2.416-.784 1.109-1.398 2.55-1.84 4.324-.444 1.773-.666 3.916-.666 6.429 0 2.424.177 4.463.532 6.119.355 1.655.85 2.993 1.485 4.013.636 1.02 1.397 1.751 2.284 2.194.887.444 1.877.666 2.97.666 1.006 0 1.915-.097 2.728-.289a9.586 9.586 0 002.239-.82 9.77 9.77 0 001.929-1.33 16.686 16.686 0 001.795-1.862v-19.51l-.267-.281c-.986-1.004-2.027-1.716-3.125-2.136a10.515 10.515 0 00-3.79-.687zM32.767 15.7a88.121 88.121 0 01-1.463 5.01 71.732 71.732 0 01-1.419 3.99l-5.941 17.604H41.59L35.649 24.61l-.13-.382c-.355-1.038-.762-2.233-1.222-3.586a100.9 100.9 0 01-1.53-4.944zM259.606.357c1.152 0 2.239.207 3.259.62a8.37 8.37 0 012.682 1.73 8.3 8.3 0 011.818 2.572c.444.975.665 2.025.665 3.148 0 1.094-.221 2.12-.665 3.081a8.111 8.111 0 01-1.818 2.528 8.9 8.9 0 01-2.682 1.73 8.325 8.325 0 01-3.26.642 7.738 7.738 0 01-3.148-.643 8.85 8.85 0 01-2.593-1.73 7.98 7.98 0 01-1.774-2.527 7.477 7.477 0 01-.643-3.081c0-1.123.214-2.173.643-3.148a8.169 8.169 0 011.774-2.572 8.306 8.306 0 012.593-1.73 7.976 7.976 0 013.149-.62z" id="c"/></defs><g fill="none" fill-rule="evenodd"><mask id="b" fill="#fff"><use xlink:href="#a"/></mask><use fill="#F3F6F9" xlink:href="#a"/><g mask="url(#b)"><g transform="translate(-39 -129)"><path fill="#418C6D" fill-rule="nonzero" d="M39 129h860v420H39z"/><path d="M857.98 402.98h-99.46a5.77 5.77 0 01-5.49-7.56l63.3-194.84a5.78 5.78 0 015.5-4h99.47a5.78 5.78 0 015.49 7.56l-63.27 194.85a5.77 5.77 0 01-5.54 3.99z" fill="#FFF" fill-rule="nonzero" opacity=".2"/><path d="M554.82 333.67h17.29c31.88-150.9-37-333.67-37-333.67H0v609.22c99.58 78.38 346.58 25.11 483.74-117.5l59.63-150.32a12.31 12.31 0 0111.45-7.73zM648.13 333.67h-76c-.67 3.16-1.4 6.3-2.21 9.42-14.71 56.63-45.65 106.55-86.16 148.68l-24.2 61h113.23l82.65-208.36a7.84 7.84 0 00-7.31-10.74z" fill="#226041" fill-rule="nonzero"/><circle fill="#548774" fill-rule="nonzero" cx="336.56" cy="531.67" r="164"/><path d="M482.87 363.48h-29.58a3 3 0 01-2.76-4.18 3 3 0 012.76-1.82h29.58a3 3 0 012.76 4.19 3 3 0 01-2.76 1.81z" fill="#FFF" fill-rule="nonzero"/><path d="M500.07 363.48h-1.21a3 3 0 01-2.76-4.18 3 3 0 012.76-1.82h2.76a2 2 0 011.82 2.76l-.62 1.43a3 3 0 01-2.75 1.81z" fill="#FFF" fill-rule="nonzero" opacity=".3"/><path d="M452.38 391.86h-1.21a3 3 0 01-2.75-4.18 3 3 0 012.75-1.82h1.21a3 3 0 012.76 4.19 3 3 0 01-2.76 1.81zM448.28 401.88h-1.21a3 3 0 01-2.75-4.19 3 3 0 012.75-1.81h1.21a3 3 0 012.76 4.18 3 3 0 01-2.76 1.82zM444.18 411.9h-1.21a3 3 0 01-2.75-4.19 3 3 0 012.75-1.81h1.21a3 3 0 012.76 4.18 3 3 0 01-2.76 1.82z" fill="#FFF" fill-rule="nonzero"/><path d="M506.08 351.15h-47.63a3 3 0 01-2.76-4.19 3 3 0 012.76-1.81h47.63a3 3 0 012.76 4.18 3 3 0 01-2.76 1.82zM493.09 401.88h-25.38a3 3 0 01-2.76-4.19 3 3 0 012.76-1.81h25.38a3 3 0 012.75 4.18 3 3 0 01-2.75 1.82z" fill="#70F270" fill-rule="nonzero"/><path d="M471.07 411.9h-13.68a3 3 0 01-2.76-4.19 3 3 0 012.76-1.81h13.68a3 3 0 012.75 4.18 3 3 0 01-2.75 1.82z" fill="#FFF" fill-rule="nonzero" opacity=".3"/><path d="M440.08 421.92h-1.21a3 3 0 01-2.75-4.19 3 3 0 012.75-1.81h1.21a3 3 0 012.75 4.18 3 3 0 01-2.75 1.82zM460.96 442.05H450.8a3 3 0 01-2.76-4.19 3 3 0 012.76-1.81h10.16a3 3 0 012.76 4.18 3 3 0 01-2.76 1.82zM474.52 442.05h-1.85a3 3 0 01-2.76-4.19 3 3 0 012.76-1.81h1.85a3 3 0 012.75 4.18 3 3 0 01-2.75 1.82zM488.67 442.05h-1.15a3 3 0 01-2.76-4.19 3 3 0 012.76-1.81h1.2a3 3 0 012.76 4.18 3 3 0 01-2.81 1.82zM509.34 363.48a2 2 0 01-1.82-2.75l.89-2.05a2 2 0 011.81-1.2 2 2 0 011.81 2.76l-.88 2.05a2 2 0 01-1.81 1.19z" fill="#FFF" fill-rule="nonzero"/><path d="M558.52 363.48H529.8a3 3 0 01-2.76-4.18 3 3 0 012.76-1.82h28.72a3 3 0 012.76 4.19 3 3 0 01-2.76 1.81z" fill="#FFF" fill-rule="nonzero" opacity=".3"/><path d="M477.71 375.82h-29.58a3 3 0 01-2.75-4.19 3 3 0 012.75-1.81h29.58a3 3 0 012.76 4.18 3 3 0 01-2.76 1.82z" fill="#FFF" fill-rule="nonzero"/><path d="M506.94 375.82H493.7a3 3 0 01-2.76-4.19 3 3 0 012.76-1.81h13.24a3 3 0 012.76 4.18 3 3 0 01-2.76 1.82z" fill="#FFF" fill-rule="nonzero" opacity=".3"/><path d="M516.22 375.82a2 2 0 01-1.82-2.76l.88-2a2 2 0 011.82-1.19 2 2 0 011.81 2.75l-.88 2a2 2 0 01-1.81 1.2zM540.52 375.82h-14.11a3 3 0 01-2.75-4.19 3 3 0 012.75-1.81h14.11a3 3 0 012.75 4.18 3 3 0 01-2.75 1.82z" fill="#FFF" fill-rule="nonzero"/><path d="M478.57 338.82h-15a3 3 0 01-2.76-4.19 3 3 0 012.76-1.81h15a3 3 0 012.76 4.18 3 3 0 01-2.76 1.82z" fill="#FFF" fill-rule="nonzero" opacity=".3"/><path d="M806.14 641.98h-9.62c-8 0-12.44-6.52-9.82-14.56l170.36-524.18c2.61-8 11.24-14.56 19.28-14.56h9.58c8 0 12.44 6.52 9.83 14.56L825.43 627.42c-2.61 8.04-11.25 14.56-19.29 14.56zM861.92 640.87h-9.58c-8 0-12.44-6.52-9.83-14.56l170.32-524.18c2.61-8 11.25-14.56 19.29-14.56h9.58c8 0 12.44 6.52 9.82 14.56L881.2 626.31c-2.61 8.04-11.24 14.56-19.28 14.56z" fill="#226041" fill-rule="nonzero"/><path d="M779.69 290.67h-5.51a.37.37 0 01-.35-.53l.68-2.09a.77.77 0 01.69-.52h5.51a.37.37 0 01.36.52l-.69 2.09a.78.78 0 01-.69.53zM812.73 290.67h-29.44a.38.38 0 01-.36-.53l.68-2.09a.8.8 0 01.7-.52h29.44a.36.36 0 01.35.52l-.68 2.09a.78.78 0 01-.69.53zM776.23 301.37h-5.52a.37.37 0 01-.35-.53l.68-2.09a.8.8 0 01.69-.52h5.52a.36.36 0 01.35.52l-.68 2.09a.78.78 0 01-.69.53zM788.41 301.37h-8.59a.37.37 0 01-.35-.53l.68-2.09a.77.77 0 01.69-.52h8.59a.37.37 0 01.35.52l-.68 2.09a.81.81 0 01-.69.53zM798.03 301.37h-5.06a.37.37 0 01-.35-.53l.68-2.09a.77.77 0 01.69-.52h5.06a.36.36 0 01.35.52l-.68 2.09a.78.78 0 01-.69.53z" fill="#70F270" opacity=".3"/><path d="M806.74 296.04h-34.29a.38.38 0 01-.36-.53l.68-2.09a.8.8 0 01.7-.52h34.29a.36.36 0 01.35.52l-.68 2.09a.78.78 0 01-.69.53z" fill="#70F270"/><path d="M792.29 306.67h-23.31a.37.37 0 01-.35-.53l.68-2.09a.77.77 0 01.69-.52h23.31a.36.36 0 01.35.52l-.68 2.09a.78.78 0 01-.69.53z" fill="#70F270" opacity=".3"/><path d="M792.25 285.38h-16.34a.37.37 0 01-.35-.53l.68-2.09a.77.77 0 01.69-.52h16.34a.37.37 0 01.35.52l-.68 2.09a.81.81 0 01-.69.53z" fill="#70F270"/><path d="M805.85 285.38h-9.19a.38.38 0 01-.36-.53l.68-2.09a.8.8 0 01.7-.52h9.19a.36.36 0 01.35.52l-.68 2.09a.78.78 0 01-.69.53z" fill="#70F270" opacity=".3"/><path d="M783.52 322.67h-19.7a.37.37 0 01-.36-.52l.69-2.1a.77.77 0 01.69-.52h19.68a.36.36 0 01.35.52l-.68 2.1a.79.79 0 01-.67.52z" fill="#70F270"/><path d="M789.37 328.02h-27.32a.37.37 0 01-.35-.52l.68-2.1a.8.8 0 01.69-.52h27.32a.36.36 0 01.35.52l-.68 2.1a.79.79 0 01-.69.52zM777.02 317.36h-11.5a.37.37 0 01-.35-.53l.68-2.09a.77.77 0 01.69-.52h11.5a.36.36 0 01.35.52l-.68 2.09a.78.78 0 01-.69.53zM787.37 317.36h-5.06a.37.37 0 01-.35-.53l.68-2.09a.8.8 0 01.69-.52h5.06a.36.36 0 01.35.52l-.68 2.09a.78.78 0 01-.69.53zM793.88 312.03h-26.63a.37.37 0 01-.35-.53l.68-2.09a.77.77 0 01.69-.52h26.63a.36.36 0 01.35.52l-.68 2.09a.78.78 0 01-.69.53zM806.96 312.03h-9.19a.37.37 0 01-.35-.53l.68-2.09a.77.77 0 01.69-.52h9.19a.36.36 0 01.35.52l-.68 2.09a.78.78 0 01-.69.53zM763.59 338.67h-5a.36.36 0 01-.35-.52l.68-2.1a.77.77 0 01.69-.52h5a.36.36 0 01.35.52l-.68 2.1a.79.79 0 01-.69.52zM794.03 338.67h-27.05a.37.37 0 01-.35-.52l.68-2.1a.8.8 0 01.69-.52h27.05a.36.36 0 01.35.52l-.68 2.1a.79.79 0 01-.69.52zM759.42 349.34h-4.29a.37.37 0 01-.36-.52l.69-2.1a.77.77 0 01.69-.52h4.29a.37.37 0 01.36.52l-.69 2.1a.79.79 0 01-.69.52zM769.34 349.34h-6.82a.37.37 0 01-.35-.52l.68-2.1a.77.77 0 01.69-.52h6.8a.36.36 0 01.35.52l-.68 2.1a.79.79 0 01-.67.52zM777.17 349.34h-3.92a.37.37 0 01-.36-.52l.68-2.1a.8.8 0 01.7-.52h3.92a.37.37 0 01.36.52l-.69 2.1a.79.79 0 01-.69.52zM784.58 344.01h-27.72a.36.36 0 01-.35-.52l.68-2.1a.77.77 0 01.69-.52h27.72a.37.37 0 01.36.52l-.68 2.1a.81.81 0 01-.7.52zM772.18 354.67H753.4a.37.37 0 01-.36-.52l.68-2.1a.8.8 0 01.7-.52h18.78a.36.36 0 01.35.52l-.68 2.1a.78.78 0 01-.69.52zM773.43 333.35h-13.11a.37.37 0 01-.35-.52l.68-2.1a.77.77 0 01.69-.52h13.11a.36.36 0 01.35.52l-.68 2.1a.79.79 0 01-.69.52z" fill="#70F270" opacity=".3"/><path d="M784.52 333.35h-7.29a.37.37 0 01-.35-.52l.68-2.1a.8.8 0 01.69-.52h7.27a.37.37 0 01.36.52l-.68 2.1a.81.81 0 01-.68.52zM764.05 370.67H748.2a.36.36 0 01-.35-.52l.68-2.1a.77.77 0 01.69-.52h15.85a.37.37 0 01.35.52l-.68 2.1a.8.8 0 01-.69.52z" fill="#70F270"/><path d="M768.52 375.99h-22a.36.36 0 01-.35-.52l.68-2.1a.77.77 0 01.69-.52h22a.37.37 0 01.36.52l-.69 2.1a.77.77 0 01-.69.52zM759.1 365.33h-9.17a.36.36 0 01-.35-.52l.68-2.1a.77.77 0 01.69-.52h9.17a.36.36 0 01.35.52l-.68 2.1a.77.77 0 01-.69.52zM767.52 365.33h-3.92a.37.37 0 01-.36-.52l.68-2.1a.8.8 0 01.7-.52h3.9a.36.36 0 01.35.52l-.68 2.1a.77.77 0 01-.67.52zM773.15 360h-21.49a.36.36 0 01-.35-.52l.68-2.1a.78.78 0 01.69-.52h21.49a.36.36 0 01.35.52l-.68 2.1a.77.77 0 01-.69.52zM783.8 360h-7.28a.36.36 0 01-.35-.52l.68-2.1a.77.77 0 01.69-.52h7.29a.36.36 0 01.35.52l-.68 2.1a.77.77 0 01-.7.52zM809.71 367.52h5.51a.36.36 0 01.35.52l-.68 2.1a.77.77 0 01-.69.52h-5.51a.37.37 0 01-.36-.52l.68-2.1a.8.8 0 01.7-.52zM813.17 356.86h5.51a.37.37 0 01.36.52l-.68 2.1a.8.8 0 01-.7.52h-5.51a.36.36 0 01-.35-.52l.68-2.1a.77.77 0 01.69-.52zM805.45 362.19h11.5a.36.36 0 01.35.52l-.68 2.1a.77.77 0 01-.69.52h-11.5a.36.36 0 01-.35-.52l.68-2.1a.77.77 0 01.69-.52zM809.16 351.53h11.26a.37.37 0 01.35.52l-.68 2.1a.8.8 0 01-.69.52h-11.26a.36.36 0 01-.35-.52l.68-2.1a.77.77 0 01.69-.52z" fill="#70F270" opacity=".3"/><path d="M805.84 372.85h7.68a.36.36 0 01.35.52l-.68 2.1a.77.77 0 01-.69.52h-7.65a.36.36 0 01-.35-.52l.68-2.1a.77.77 0 01.66-.52z" fill="#70F270"/><path d="M817.96 335.54h7.65a.36.36 0 01.35.52l-.68 2.1a.79.79 0 01-.69.52h-7.65a.36.36 0 01-.35-.52l.68-2.1a.77.77 0 01.69-.52zM812.08 330.21h15.26a.37.37 0 01.36.52l-.68 2.1a.81.81 0 01-.7.52h-15.26a.36.36 0 01-.35-.52l.68-2.1a.77.77 0 01.69-.52zM812.38 340.87h11.5a.36.36 0 01.35.52l-.68 2.1a.79.79 0 01-.69.52h-11.5a.36.36 0 01-.35-.52l.68-2.1a.77.77 0 01.69-.52zM807.57 346.2h14.58a.36.36 0 01.35.52l-.68 2.1a.79.79 0 01-.69.52h-14.61a.36.36 0 01-.35-.52l.68-2.1a.77.77 0 01.72-.52zM825.81 319.55h5a.36.36 0 01.35.52l-.68 2.1a.79.79 0 01-.69.52h-5a.36.36 0 01-.35-.52l.68-2.1a.77.77 0 01.69-.52z" fill="#70F270" opacity=".3"/><path d="M829.98 308.89h4.29a.36.36 0 01.35.52l-.68 2.09a.78.78 0 01-.69.53h-4.29a.38.38 0 01-.36-.53l.68-2.09a.8.8 0 01.7-.52z" fill="#70F270"/><path d="M816.86 314.22h15.66a.36.36 0 01.35.52l-.68 2.09a.78.78 0 01-.69.53h-15.68a.37.37 0 01-.35-.53l.68-2.09a.8.8 0 01.71-.52z" fill="#70F270" opacity=".3"/><path d="M829.27 303.56H836a.37.37 0 01.36.52l-.68 2.09a.81.81 0 01-.7.53h-6.73a.37.37 0 01-.35-.53l.68-2.09a.77.77 0 01.69-.52zM815.97 324.88h13.11a.37.37 0 01.35.52l-.68 2.1a.81.81 0 01-.69.52h-13.11a.36.36 0 01-.35-.52l.68-2.1a.77.77 0 01.69-.52z" fill="#70F270"/><path d="M825.35 287.57h15.85a.36.36 0 01.35.52l-.68 2.09a.78.78 0 01-.69.53h-15.85a.37.37 0 01-.35-.53l.68-2.09a.77.77 0 01.69-.52zM832.94 282.24h10a.36.36 0 01.35.52l-.68 2.09a.78.78 0 01-.69.53h-10a.38.38 0 01-.36-.53l.68-2.09a.8.8 0 01.7-.52zM830.3 292.9h9.22a.36.36 0 01.35.52l-.68 2.09a.78.78 0 01-.69.53h-9.17a.37.37 0 01-.35-.53l.68-2.09a.77.77 0 01.64-.52zM828.3 298.23h9.44a.37.37 0 01.35.52l-.68 2.09a.81.81 0 01-.69.53h-9.44a.37.37 0 01-.35-.53l.68-2.09a.77.77 0 01.69-.52z" fill="#70F270" opacity=".3"/><path d="M729.89 328.67h-.07l-.91.67h1.45c-.15-.25-.31-.49-.47-.67zm-6.36-3.33c-1.36.65-2.57 2.58-3.31 5.22a37.41 37.41 0 014.24-.83c1.27-1.11 2.54-2.11 3.78-3-1.63-1.54-3.36-2.06-4.72-1.43l.01.04zm9.71 1.23l-.29.16a17 17 0 011.6 3 23.81 23.81 0 013.64.83c1.17-2.64 1.38-4.57.49-5.22-.89-.65-2.85-.19-5.44 1.19v.04zm2.48 6.73v.16c0 .15.07.3.11.46l.12.63c.22-.33.42-.66.62-1l-.85-.25zm-15 0l-.26.06c-.28.07-.55.13-.82.21 0 .32-.07.65-.1 1l.59-.63c.17-.27.39-.48.57-.68l.02.04zm6.73 2.14c1.67 0 2.54 1.35 1.93 3a4.8 4.8 0 01-4.14 3c-1.67 0-2.53-1.36-1.93-3a4.8 4.8 0 014.12-3.04l.02.04zm-11.05-.8l-.27.11c-2.65 1.11-4.48 2.46-4.94 3.72-.46 1.26.44 2.69 2.42 3.82a46.33 46.33 0 012.64-3.82 26.85 26.85 0 01.13-3.87l.02.04zm22.68 0l-.06.1c-.75 1.21-1.61 2.46-2.58 3.73a26.77 26.77 0 01-.15 3.82c2.81-1.13 4.74-2.53 5.21-3.82.47-1.29-.46-2.74-2.44-3.87l.02.04zm-22.39 7.74l-.24.37c-.13.21-.25.42-.38.62l.89.27c-.05-.21-.1-.42-.14-.63-.04-.21-.11-.46-.15-.67l.02.04zm16.46 0l-.15.17-.43.46-.6.63 1.08-.27c.02-.36.05-.7.08-1.03l.02.04zm-4.6-10c-1.17 0-2.33.07-3.46.18-1 .88-1.93 1.84-2.89 2.86-.96 1.02-1.84 2-2.65 3a24.87 24.87 0 00.44 3c.206.97.477 1.926.81 2.86 1.11.115 2.224.172 3.34.17 1.156 0 2.31-.06 3.46-.18 1-.88 1.94-1.83 2.89-2.85.95-1.02 1.85-2 2.65-3a22.82 22.82 0 00-.44-3 21.93 21.93 0 00-.81-2.86 31.92 31.92 0 00-3.37-.2l.03.02zm-4.79 15.15h-1.44c.15.25.3.49.46.72l.98-.72zm8.69-1.17l-.4.1a38.36 38.36 0 01-3.84.73c-1.27 1.1-2.54 2.1-3.78 3 1.63 1.51 3.36 2 4.72 1.39 1.36-.61 2.54-2.61 3.28-5.24l.02.02zm-18 0v.09c-1.14 2.59-1.32 4.48-.45 5.12.87.64 3 .12 5.73-1.39a18 18 0 01-1.6-3 24.09 24.09 0 01-3.67-.84l-.01.02zm26.7-23.69c1.88 1.37 1.58 4.71-.42 8.87 3.25 1.67 4.78 4.13 3.78 6.88-1 2.75-4.32 5.2-8.78 6.87-1 4.17-3.17 7.51-6 8.88-2.83 1.37-5.91.49-8.37-2-4.27 2.49-7.94 3.37-9.82 2s-1.58-4.71.42-8.88c-3.24-1.67-4.78-4.13-3.78-6.87 1-2.74 4.33-5.21 8.78-6.88 1-4.16 3.17-7.5 6.05-8.87 2.88-1.37 5.9-.5 8.36 2 4.24-2.49 7.9-3.37 9.78-2z" fill="#FFF"/><path d="M843.72 250.48l-1.45 4h-5.31l1.45-4h5.31zm-10.89 2l1.79 2.82-5.11 3.75-1.79-2.82 5.11-3.75zm15 0l2.38 3.75-3.84 2.82-2.38-3.75 3.84-2.82zm-10.91 9.36a1.28 1.28 0 011.2 1.89 3 3 0 01-2.6 1.94 1.29 1.29 0 01-1.21-1.9 3 3 0 012.62-1.92l-.01-.01zm-9-.76l-1.93 5.31h-4l1.93-5.31h4zm22.54 0l-1.93 5.31h-4l1.93-5.31h4zm-7.49 7.34l1.79 2.82-5.12 3.75-1.78-2.82 5.11-3.75zm-16.88 0l2.39 3.75-3.84 2.82-2.38-3.75 3.83-2.82zm9.42 4.6l-1.45 4h-5.3l1.45-4h5.3zm2.8-15a9 9 0 00-7.75 5.68c-1.15 3.14.47 5.69 3.61 5.69a9 9 0 007.75-5.69c1.14-3.09-.47-5.64-3.61-5.64v-.04zm1.91-5.26c6 0 9.16 4.9 7 10.94-2.16 6.04-8.92 10.97-14.96 10.97-6.04 0-9.16-4.89-7-10.94s8.92-10.93 14.96-10.93v-.04z" fill="#FFF" fill-rule="nonzero"/><path d="M537.52 407.85a1.08 1.08 0 00-.94.69c-.14.39.05.7.44.7a1.1 1.1 0 00.95-.7.47.47 0 00-.45-.69zm7 0a1.1 1.1 0 00-.95.69c-.14.39.06.7.44.7a1.09 1.09 0 001-.7.47.47 0 00-.58-.69h.09zm2.45-4.15c.09.07.07.21 0 .32l-1.86 2.1c1.69 1.16 2.32 3.37 1.4 5.9h-13.99a11 11 0 015.69-5.9l-.34-2.1a.38.38 0 01.21-.32c.13-.06.25 0 .26.09l.34 2.12a9 9 0 013.26-.66 5.63 5.63 0 012.76.66l1.89-2.12a.27.27 0 01.29-.12l.09.03zm1.78 9.71c.77 0 1.14.71.82 1.58l-2.4 6.58a2.36 2.36 0 01-2 1.58c-.77 0-1.14-.71-.82-1.58l2.4-6.58a2.36 2.36 0 011.91-1.58h.09zm-19.47 0c.77 0 1.13.71.82 1.58l-2.4 6.58a2.39 2.39 0 01-2 1.58c-.77 0-1.14-.71-.82-1.58l2.39-6.58a2.39 2.39 0 011.92-1.58h.09zm16.69 0l-3.81 10.26a2.79 2.79 0 01-2.35 1.82h-1.11l-1.35 3.71a2.58 2.58 0 01-2.17 1.68c-.86 0-1.29-.75-.95-1.68l1.35-3.71h-2.06l-1.35 3.71a2.58 2.58 0 01-2.17 1.68c-.86 0-1.28-.75-.95-1.68l1.35-3.71h-1.11c-.93 0-1.39-.81-1-1.82l3.72-10.23 13.96-.03zm14.07-20.52h-5.58a3.87 3.87 0 01-3.17 2.09h-11.13a1.6 1.6 0 01-1.65-2.09h-5.59l-18 49.38h27.12l18-49.38zm1.22-3.47a2.91 2.91 0 011.75.39c.429.281.716.733.79 1.24a3.49 3.49 0 01-.3 1.89l-17.98 49.29a5.65 5.65 0 01-1.08 1.89 5.24 5.24 0 01-1.69 1.24 4.56 4.56 0 01-2 .39h-27a2.93 2.93 0 01-1.75-.39 1.81 1.81 0 01-.79-1.24 3.57 3.57 0 01.3-1.89l17.94-49.29a5.16 5.16 0 011.08-1.89 5 5 0 011.69-1.24 4.52 4.52 0 012-.39h27.04z" fill="#70F270"/><g fill="#70F270" fill-rule="nonzero"><path d="M509.62 447.14h34.77l21.51-59.11h-34.77z"/><path d="M525.1 380.73h51.46l-26.83 73.71h-51.46z"/></g><path d="M519.24 342.29a1.9 1.9 0 01-1.82-2.48l4.57-14.77h-6.36a1.93 1.93 0 01-1.8-2.6l7.64-20.15a1.91 1.91 0 011.79-1.24h18.26a1.92 1.92 0 011.47 3.15l-8.47 10.06h7a1.91 1.91 0 011.41 3.21l-22.27 24.2a1.92 1.92 0 01-1.42.62zm-.84-21.08h6.19a1.91 1.91 0 011.83 2.48l-2.82 9.12 13.53-14.72h-6.76a1.92 1.92 0 01-1.47-3.15l8.47-10.06h-12.78l-6.19 16.33z" fill="#FFF" fill-rule="nonzero"/><rect fill="#70F270" fill-rule="nonzero" transform="rotate(-22.54 365.198 340.268)" x="361.303" y="319.418" width="7.79" height="41.7" rx="3.89"/><rect fill="#70F270" fill-rule="nonzero" transform="rotate(23.65 394.899 340.496)" x="391.004" y="319.646" width="7.79" height="41.7" rx="3.89"/><circle fill="#FFF" fill-rule="nonzero" cx="277.76" cy="458.67" r="3.58"/><circle fill="#FFF" fill-rule="nonzero" cx="300.49" cy="458.67" r="3.58"/><circle fill="#FFF" fill-rule="nonzero" cx="289.13" cy="469.78" r="3.58"/><circle fill="#FFF" fill-rule="nonzero" cx="311.88" cy="458.67" r="3.58"/><circle fill="#FFF" fill-rule="nonzero" cx="334.61" cy="458.67" r="3.58"/><circle fill="#FFF" fill-rule="nonzero" cx="323.25" cy="469.78" r="3.58"/><circle fill="#FFF" fill-rule="nonzero" cx="346" cy="458.67" r="3.58"/><circle fill="#FFF" fill-rule="nonzero" cx="368.74" cy="458.67" r="3.58"/><circle fill="#FFF" fill-rule="nonzero" cx="300.49" cy="431.05" r="3.58"/><circle fill="#FFF" fill-rule="nonzero" cx="300.51" cy="442.17" r="3.58"/><circle fill="#FFF" fill-rule="nonzero" cx="289.13" cy="414.55" r="3.58"/><path fill="#FFF" fill-rule="nonzero" d="M300.99 442.17h-1v-10.96l-11.27-16.37.82-.57 11.45 16.63zM346 458.17h22.73v1H346zM289 470.62l-11.59-11.6.7-.71L289 469.2l11.31-11.31.71.71z"/><circle fill="#5BE85F" fill-rule="nonzero" cx="266.39" cy="469.78" r="3.58"/><circle fill="#5BE85F" fill-rule="nonzero" cx="300.51" cy="469.78" r="3.58"/><circle fill="#5BE85F" fill-rule="nonzero" cx="334.63" cy="469.78" r="3.58"/><circle fill="#5BE85F" fill-rule="nonzero" cx="357.37" cy="469.78" r="3.58"/><circle fill="#5BE85F" fill-rule="nonzero" cx="266.39" cy="442.17" r="3.58"/><circle fill="#5BE85F" fill-rule="nonzero" cx="277.76" cy="431.05" r="3.58"/><circle fill="#5BE85F" fill-rule="nonzero" cx="289.13" cy="442.17" r="3.58"/><circle fill="#5BE85F" fill-rule="nonzero" cx="311.88" cy="431.05" r="3.58"/><circle fill="#5BE85F" fill-rule="nonzero" cx="334.61" cy="431.05" r="3.58"/><circle fill="#5BE85F" fill-rule="nonzero" cx="323.25" cy="442.17" r="3.58"/><circle fill="#5BE85F" fill-rule="nonzero" cx="334.63" cy="442.17" r="3.58"/><circle fill="#5BE85F" fill-rule="nonzero" cx="346" cy="431.05" r="3.58"/><circle fill="#5BE85F" fill-rule="nonzero" cx="368.74" cy="431.05" r="3.58"/><circle fill="#5BE85F" fill-rule="nonzero" cx="357.37" cy="442.17" r="3.58"/><circle fill="#5BE85F" fill-rule="nonzero" cx="266.39" cy="414.55" r="3.58"/><circle fill="#5BE85F" fill-rule="nonzero" cx="277.76" cy="403.44" r="3.58"/><circle fill="#5BE85F" fill-rule="nonzero" cx="300.49" cy="403.44" r="3.58"/><circle fill="#5BE85F" fill-rule="nonzero" cx="300.51" cy="414.55" r="3.58"/><circle fill="#5BE85F" fill-rule="nonzero" cx="311.88" cy="403.44" r="3.58"/><circle fill="#5BE85F" fill-rule="nonzero" cx="334.61" cy="403.44" r="3.58"/><circle fill="#5BE85F" fill-rule="nonzero" cx="323.25" cy="414.55" r="3.58"/><circle fill="#5BE85F" fill-rule="nonzero" cx="334.63" cy="414.55" r="3.58"/><circle fill="#5BE85F" fill-rule="nonzero" cx="346" cy="403.44" r="3.58"/><circle fill="#5BE85F" fill-rule="nonzero" cx="368.74" cy="403.44" r="3.58"/><circle fill="#5BE85F" fill-rule="nonzero" cx="357.37" cy="414.55" r="3.58"/><path fill="#5BE85F" fill-rule="nonzero" d="M311.497 431.374l.7-.715 11.368 11.116-.7.715zM345.65 403.795l.707-.708L357.6 414.33l-.707.708zM299.99 403.44h1v11.12h-1z"/><circle fill="#FFF" fill-rule="nonzero" cx="328.37" cy="494.55" r="3.58"/><circle fill="#FFF" fill-rule="nonzero" cx="305.63" cy="494.55" r="3.58"/><circle fill="#FFF" fill-rule="nonzero" cx="317" cy="483.44" r="3.58"/><circle fill="#FFF" fill-rule="nonzero" cx="294.25" cy="494.55" r="3.58"/><circle fill="#FFF" fill-rule="nonzero" cx="271.51" cy="494.55" r="3.58"/><circle fill="#FFF" fill-rule="nonzero" cx="282.88" cy="483.44" r="3.58"/><circle fill="#FFF" fill-rule="nonzero" cx="260.13" cy="494.55" r="3.58"/><circle fill="#FFF" fill-rule="nonzero" cx="237.39" cy="494.55" r="3.58"/><circle fill="#FFF" fill-rule="nonzero" cx="305.63" cy="522.17" r="3.58"/><circle fill="#FFF" fill-rule="nonzero" cx="305.61" cy="511.05" r="3.58"/><circle fill="#FFF" fill-rule="nonzero" cx="317" cy="538.67" r="3.58"/><path fill="#FFF" fill-rule="nonzero" d="M305.13 511.05h1v10.96l11.28 16.38-.82.56-11.46-16.63zM237.39 494.05h22.73v1h-22.73zM317.13 482.61l11.59 11.59-.71.71-10.88-10.89-11.31 11.31-.71-.71z"/><circle fill="#5BE85F" fill-rule="nonzero" cx="339.74" cy="483.44" r="3.58"/><circle fill="#5BE85F" fill-rule="nonzero" cx="305.61" cy="483.44" r="3.58"/><circle fill="#5BE85F" fill-rule="nonzero" cx="271.49" cy="483.44" r="3.58"/><circle fill="#5BE85F" fill-rule="nonzero" cx="248.76" cy="483.44" r="3.58"/><circle fill="#5BE85F" fill-rule="nonzero" cx="339.74" cy="511.05" r="3.58"/><circle fill="#5BE85F" fill-rule="nonzero" cx="328.37" cy="522.17" r="3.58"/><circle fill="#5BE85F" fill-rule="nonzero" cx="317" cy="511.05" r="3.58"/><circle fill="#5BE85F" fill-rule="nonzero" cx="294.25" cy="522.17" r="3.58"/><circle fill="#5BE85F" fill-rule="nonzero" cx="271.51" cy="522.17" r="3.58"/><circle fill="#5BE85F" fill-rule="nonzero" cx="282.88" cy="511.05" r="3.58"/><circle fill="#5BE85F" fill-rule="nonzero" cx="271.49" cy="511.05" r="3.58"/><circle fill="#5BE85F" fill-rule="nonzero" cx="260.13" cy="522.17" r="3.58"/><circle fill="#5BE85F" fill-rule="nonzero" cx="237.39" cy="522.17" r="3.58"/><circle fill="#5BE85F" fill-rule="nonzero" cx="248.76" cy="511.05" r="3.58"/><circle fill="#5BE85F" fill-rule="nonzero" cx="339.74" cy="538.67" r="3.58"/><circle fill="#5BE85F" fill-rule="nonzero" cx="328.37" cy="549.78" r="3.58"/><circle fill="#5BE85F" fill-rule="nonzero" cx="305.63" cy="549.78" r="3.58"/><circle fill="#5BE85F" fill-rule="nonzero" cx="305.61" cy="538.67" r="3.58"/><circle fill="#5BE85F" fill-rule="nonzero" cx="294.25" cy="549.78" r="3.58"/><circle fill="#5BE85F" fill-rule="nonzero" cx="271.51" cy="549.78" r="3.58"/><circle fill="#5BE85F" fill-rule="nonzero" cx="282.88" cy="538.67" r="3.58"/><circle fill="#5BE85F" fill-rule="nonzero" cx="271.49" cy="538.67" r="3.58"/><circle fill="#5BE85F" fill-rule="nonzero" cx="260.13" cy="549.78" r="3.58"/><circle fill="#5BE85F" fill-rule="nonzero" cx="237.39" cy="549.78" r="3.58"/><circle fill="#5BE85F" fill-rule="nonzero" cx="248.76" cy="538.67" r="3.58"/><path fill="#5BE85F" fill-rule="nonzero" d="M282.499 511.37l.699-.714 11.368 11.117-.7.715zM248.525 538.89l.707-.708 11.243 11.243-.707.707zM305.13 538.67h1v11.12h-1z"/><path fill="#1F3A1B" fill-rule="nonzero" d="M410.56 549.67h-64l-15-83h79z"/><path d="M407.37 432.67h-20.85c7 20.57 4.28 93 26.14 93h52.28v-15.34l-12.42-1.85c-7-.81-1-75.81-45.15-75.81z" fill="#1F3A1B" fill-rule="nonzero"/><path d="M403.52 472.94v-40.27h-33.14a44.07 44.07 0 00-42 56.76c6.478 21.515 26.291 36.24 48.76 36.24h52.28v-15.34l-12.34-1.85a99 99 0 01-46.65-20.2l44.61 12.46-11.52-27.8z" fill="#1F3A1B" fill-rule="nonzero"/><path d="M396.63 445.86h-1.93c-7 0-13.61-1-18.67-5.43a8.33 8.33 0 01-2.76-6.27v-34.3h28.8v40.15a5.66 5.66 0 01-5.44 5.85z" fill="#2A932A" fill-rule="nonzero"/><circle fill="#70F270" fill-rule="nonzero" cx="382.06" cy="379.81" r="39.64"/><path d="M504.2 520.88h1c-16.3-8.63-26.84 4.79-26.84 4.79h-13.43v-15.34h14.38l20.36-7.72a15.06 15.06 0 0114 1.74l3.06 2.14 8 8a3.72 3.72 0 01-2.63 6.36l-17.9.03z" fill="#2A932A" fill-rule="nonzero"/><path d="M468.73 520.88h1c-16.3-8.63-26.85 4.79-26.85 4.79h-13.46v-15.34h14.38l20.35-7.72a15.05 15.05 0 0114 1.74l3.06 2.14 8 8a3.73 3.73 0 01-2.63 6.36l-17.85.03z" fill="#3AAF3A" fill-rule="nonzero"/><path fill="#0C2820" fill-rule="nonzero" d="M542.98 517.84h3.22v2.61h-3.22zM529.22 517.84h3.22v2.61h-3.22zM520.62 517.84h3.22v2.61h-3.22zM512.02 517.84h3.22v2.61h-3.22zM503.43 517.84h3.22v2.61h-3.22zM494.83 517.84h3.22v2.61h-3.22zM482.79 517.84h3.22v2.61h-3.22zM474.19 517.84h3.22v2.61h-3.22zM462.16 517.84h3.22v2.61h-3.22z"/><path fill="#226041" fill-rule="nonzero" d="M546.2 517.84h5.37v2.61h-5.37zM532.44 517.84h5.37v2.61h-5.37zM523.85 517.84h5.37v2.61h-5.37zM515.25 517.84h5.37v2.61h-5.37zM506.65 517.84h5.37v2.61h-5.37zM498.05 517.84h5.37v2.61h-5.37zM486.02 517.84h5.37v2.61h-5.37zM477.42 517.84h5.37v2.61h-5.37zM465.38 517.84h5.37v2.61h-5.37zM479.35 520.45h77.38v5.22h-77.38z"/><path fill="#0C2820" fill-rule="nonzero" d="M455.28 520.45h24.07v5.22h-24.07z"/><rect fill="#1F3A1B" fill-rule="nonzero" x="675.23" y="367.67" width="151" height="113" rx="4.29"/><path d="M733.23 521.67h10v4h-14a4 4 0 014-4zM750.95 419.67v102h-4.71v-97.29a4.71 4.71 0 014.71-4.71z" fill="#0C2820" fill-rule="nonzero"/><rect fill="#1F3A1B" fill-rule="nonzero" transform="rotate(-90 620.73 443.17)" x="545.23" y="394.67" width="151" height="97" rx="3.98"/><path d="M603.23 521.67h10v4h-14a4 4 0 014-4z" fill="#0C2820" fill-rule="nonzero"/><path d="M743.23 521.67h41a4 4 0 014 4h-45v-4z" fill="#226041" fill-rule="nonzero"/><path d="M750.95 419.67h11.62a5.66 5.66 0 015.66 5.66v96.34h-17.28v-102zM613.23 521.67h41a4 4 0 014 4h-45v-4z" fill="#226041" fill-rule="nonzero"/><path d="M620.95 442.67h12.3a5 5 0 015 5v74h-17.3v-79z" fill="#226041" fill-rule="nonzero"/><path d="M620.72 442.67h.22v79h-4.71v-74.51a4.49 4.49 0 014.49-4.49z" fill="#0C2820" fill-rule="nonzero"/><path d="M409.65 379.81h-17.83c-8.26 0-14.95 7.13-14.95 15.91a5.74 5.74 0 000 11.46c-.26 11.35 6 18.49 17.55 18.69h3.5c9 0 16.27-7.75 16.27-17.32v-23.88a4.69 4.69 0 00-4.54-4.86z" fill="#3AAF3A" fill-rule="nonzero"/><path d="M74.11 523.88v-2.21l-4.8-2.77v-5.53l-.39-.23-1.53-.88-1.91-1.11v-.91l.79-.45 1.91 1.1 1.53.88.39.23 4.8-2.77 4.79 2.77.4-.23 1.52-.88-6.71-3.87-4.8 2.77-1.92-1.11-1.91 1.11 8.63-5 8.63 5 .79.45v.91l-1.92 1.11-1.52.88-.4.23v5.53l-4.79 2.77v2.22l6.71-3.88v-5.54l1.92-1.1v7.75l-8.63 5-.79.46-.79-.46-8.63-5v-7.75l1.52.88.39.22v5.54l6.72 3.88v-.01zm-10.59-13.84v12.18l5.67 3.27 4.88 2.81.79.46.79-.46 4.87-2.81 5.67-3.27v-13.09l-.79-.46-4.88-2.82-5.66-3.27-5.67 3.27-4.88 2.82-.79.46v.91z" fill="#FFF"/><path d="M162.52 509.13h-5.57v13.08h5.82a7.36 7.36 0 001.94-.24 4.48 4.48 0 001.51-.7 3.17 3.17 0 001-1.13 3.4 3.4 0 00.3-1.47 3 3 0 00-.23-1.19 2.84 2.84 0 00-.6-.9 3.5 3.5 0 00-.89-.64 5 5 0 00-1.09-.44c.266-.12.52-.264.76-.43a3 3 0 00.66-.62c.204-.26.366-.55.48-.86a3.33 3.33 0 00.18-1.14 3 3 0 00-.3-1.36 2.93 2.93 0 00-.86-1 4.24 4.24 0 00-1.35-.65 6 6 0 00-1.76-.23v-.08zm41.05 0h-9.46v13.08h9.41v-1.34h-8v-4.58h8v-1.35h-8v-4.47h8v-1.34h.05zm-15.54 1.36h4.39v-1.36h-10.28v1.36h4.38v11.72h1.5v-11.72h.01zm-13 6.53l5.45-7.89h-1.72l-4.45 6.54-4.42-6.54h-1.79l5.44 7.91v5.17h1.49v-5.19zm-12.73-2.06h-3.87v-4.51h4a3.48 3.48 0 012.15.58c.492.37.772.956.75 1.57a2 2 0 01-.84 1.76 3.64 3.64 0 01-2.17.6h-.02zm.52 5.93h-4.39v-4.62h4.09a4.63 4.63 0 012.6.59c.572.358.908.996.88 1.67a2 2 0 01-.86 1.74 4 4 0 01-2.35.62h.03zM101.89 511.78v-2.65H91.04v2.65h4v10.43h2.88v-10.43h3.97zm52.25 7.87h-7v-2.75h7v-2.56h-7v-1.45l-1.2-1.2h8.22v-2.56h-9.88v13.08h9.88v-2.54l-.02-.02zm-11.56 2.56v-2.61h-6.53v-10.47h-2.88v13.08h9.41zm-11.06-8.54a4.75 4.75 0 00-.35-1.84 4 4 0 00-1-1.43 4.45 4.45 0 00-1.57-.93 6.26 6.26 0 00-2.1-.32h-5.35v13.08h2.88v-3.92h2.19a7.22 7.22 0 002.06-.29 5.1 5.1 0 001.69-.87 4.21 4.21 0 001.13-1.44 4.64 4.64 0 00.41-2l.01-.04zm-2.92.05a1.89 1.89 0 01-.6 1.42 2.33 2.33 0 01-1.68.57h-1.08l-1.2 1.2v-5.21h2.22a2.65 2.65 0 011.72.51c.426.37.655.917.62 1.48v.03zm-9.12 8.47v-13.06h-2.88v13.08l2.88-.02zm-4.57 0l-3.19-4.67a4.51 4.51 0 002-1.47 4.13 4.13 0 00.77-2.59 4 4 0 00-1.3-3.17 5.33 5.33 0 00-3.64-1.14h-6v13.08h2.88v-4.18h2.26l2.81 4.18 3.41-.04zm-3.31-8.58a1.72 1.72 0 01-.57 1.35 2.41 2.41 0 01-1.63.5h-1.72l-1.2 1.2v-5h2.86a2.67 2.67 0 011.67.47c.407.347.626.866.59 1.4v.08z" fill="#FFF" fill-rule="nonzero"/><path d="M369.76 539.75h460v2.92a7.08 7.08 0 01-7.08 7.08H376.84a7.08 7.08 0 01-7.08-7.08v-2.92z" fill="#0C2820" fill-rule="nonzero"/><rect fill="#2E9E6B" fill-rule="nonzero" x="348.76" y="525.75" width="493" height="14" rx="7"/><rect fill="#226041" fill-rule="nonzero" x="348.76" y="525.77" width="143.67" height="14" rx="7"/><path d="M261.05 271.75a9.13 9.13 0 014.06.88 8.36 8.36 0 013.11 2.58 12.42 12.42 0 012 4.2 21.23 21.23 0 01.71 5.75 17.67 17.67 0 01-.79 5.4 13.21 13.21 0 01-2.24 4.32 10.33 10.33 0 01-8.29 3.92 9 9 0 01-7-2.94v11.37h-5v-35h3a1.23 1.23 0 011.32 1l.44 2.93a16.56 16.56 0 011.76-1.79 10.58 10.58 0 014.31-2.3 10.37 10.37 0 012.61-.32zm-31.63.08a13.75 13.75 0 015.22.94 10.84 10.84 0 014 2.71 12.09 12.09 0 012.52 4.25 18.39 18.39 0 010 11.18 12 12 0 01-2.52 4.25 10.94 10.94 0 01-4 2.7 14 14 0 01-5.22.94 14.11 14.11 0 01-5.25-.94 11.15 11.15 0 01-4-2.7 11.89 11.89 0 01-2.54-4.25 18 18 0 010-11.18 12 12 0 012.54-4.25 11 11 0 014-2.71 13.91 13.91 0 015.25-.94zm-92.68-.01a12.18 12.18 0 014.42.78 9.86 9.86 0 013.49 2.29 10.5 10.5 0 012.31 3.68 13.92 13.92 0 01.84 5 3.23 3.23 0 01-.26 1.56 1.06 1.06 0 01-.95.4h-17.18a14.24 14.24 0 00.68 4.08 8.22 8.22 0 001.63 2.9 6.52 6.52 0 002.49 1.73 8.71 8.71 0 003.22.57 9.56 9.56 0 002.9-.39 14.18 14.18 0 002.12-.84c.59-.3 1.09-.58 1.49-.83a2.07 2.07 0 011.07-.39 1.11 1.11 0 011 .46l1.39 1.85a10.09 10.09 0 01-2.14 1.87 12.37 12.37 0 01-2.58 1.27c-.915.33-1.86.574-2.82.73a18.84 18.84 0 01-2.88.23 13.48 13.48 0 01-5-.92 11.14 11.14 0 01-4-2.68 12.4 12.4 0 01-2.63-4.38 18 18 0 01-.94-6 15.06 15.06 0 01.85-5.09 12.24 12.24 0 012.44-4.12 11.24 11.24 0 013.88-2.76 12.74 12.74 0 015.16-1zm52.73 0a12.22 12.22 0 014.42.78 9.86 9.86 0 013.49 2.29 10.5 10.5 0 012.31 3.68 13.92 13.92 0 01.84 5 3.23 3.23 0 01-.26 1.56 1.06 1.06 0 01-.95.4h-17.18c.024 1.385.25 2.76.67 4.08a8.24 8.24 0 001.64 2.9 6.52 6.52 0 002.49 1.73 8.71 8.71 0 003.22.57 9.56 9.56 0 002.9-.39 14.63 14.63 0 002.12-.84c.59-.3 1.09-.58 1.49-.83a2.07 2.07 0 011.07-.39c.39-.032.77.142 1 .46l1.39 1.85a10.09 10.09 0 01-2.14 1.87 12.37 12.37 0 01-2.58 1.27c-.915.33-1.86.574-2.82.73a18.84 18.84 0 01-2.88.23 13.48 13.48 0 01-5-.92 11.14 11.14 0 01-4-2.68 12.4 12.4 0 01-2.63-4.38 17.7 17.7 0 01-.94-6 14.82 14.82 0 01.85-5.09 12.24 12.24 0 012.44-4.12 11.24 11.24 0 013.88-2.76 12.74 12.74 0 015.16-1zm97.97 0a12.24 12.24 0 014.43.78 9.86 9.86 0 013.49 2.29 10.5 10.5 0 012.31 3.68 13.92 13.92 0 01.84 5 3.23 3.23 0 01-.26 1.56 1.07 1.07 0 01-1 .4h-17.17c.024 1.385.25 2.76.67 4.08a8.24 8.24 0 001.64 2.9 6.52 6.52 0 002.49 1.73 8.71 8.71 0 003.22.57 9.56 9.56 0 002.9-.39 14.63 14.63 0 002.12-.84c.59-.3 1.09-.58 1.49-.83a2 2 0 011.07-.39c.39-.032.77.142 1 .46l1.43 1.85a10.09 10.09 0 01-2.14 1.87 12.37 12.37 0 01-2.58 1.27c-.915.33-1.86.574-2.82.73a18.84 18.84 0 01-2.88.23 13.48 13.48 0 01-5-.92 11.14 11.14 0 01-4-2.68 12.4 12.4 0 01-2.63-4.38 17.7 17.7 0 01-.94-6 14.82 14.82 0 01.85-5.09 12.24 12.24 0 012.44-4.12 11.15 11.15 0 013.88-2.76 12.72 12.72 0 015.15-1zm28.54-.02a7 7 0 011.61.19 4.36 4.36 0 011.33.58l-.34 3.79a.81.81 0 01-.85.7 6.58 6.58 0 01-1.08-.14 7.64 7.64 0 00-1.55-.14 5.89 5.89 0 00-2.14.35 4.87 4.87 0 00-1.66 1 6.71 6.71 0 00-1.3 1.67 15.88 15.88 0 00-1.06 2.26v16.4h-5v-26.2h2.89a1.58 1.58 0 011.12.3c.237.285.387.632.43 1l.27 3.71a12.05 12.05 0 013.05-4 6.49 6.49 0 014.28-1.47zm-162.26.44a1.69 1.69 0 011 .28c.251.175.432.434.51.73l6.27 16.09c.22.67.42 1.33.58 2 .16.67.31 1.32.45 2 .14-.66.29-1.31.47-2s.37-1.33.61-2l6.35-16.09a1.45 1.45 0 01.54-.73 1.6 1.6 0 01.93-.28h3.92l-10.62 26.2h-4.54l-10.62-26.2h4.15zm57.37-11.86v38.06h-5.06v-38.06h5.06zm-101.59 2.4a17 17 0 015.8 3.78 16.71 16.71 0 013.75 5.85 20.56 20.56 0 011.33 7.51 20.55 20.55 0 01-1.33 7.56 16.67 16.67 0 01-3.75 5.84 17 17 0 01-5.8 3.78 20.23 20.23 0 01-6.988 1.34H88.07v-37H102a20.23 20.23 0 017.5 1.34zm149.91 13.05a7.24 7.24 0 00-3.81 1 11.07 11.07 0 00-3 2.79l.03 12.37a7.12 7.12 0 002.66 2.27 7.77 7.77 0 003.21.65 6.32 6.32 0 005.35-2.49c1.273-1.66 1.907-4.08 1.9-7.26a18.13 18.13 0 00-.43-4.27 8.1 8.1 0 00-1.23-2.89 5 5 0 00-2-1.65 6.57 6.57 0 00-2.68-.52zm-35.6 2.46c-1.227 1.667-1.84 4-1.84 7a11.7 11.7 0 001.84 7 6.51 6.51 0 005.61 2.59 6.4 6.4 0 005.54-2.5 14.48 14.48 0 000-14.09 6.39 6.39 0 00-5.54-2.52 6.5 6.5 0 00-5.61 2.52zm-121.79-12.44h-8.41V294h8.41a14.092 14.092 0 005.27-1 11 11 0 004-2.77 12.73 12.73 0 002.57-4.43 18.07 18.07 0 00.9-5.88 18.07 18.07 0 00-.9-5.91 12.59 12.59 0 00-2.57-4.44 11 11 0 00-4-2.77 13.89 13.89 0 00-5.27-.95zm82.52 11.5a8.88 8.88 0 00-2.31 5.08l13.75-.03a8.41 8.41 0 00-.46-2.73 6.06 6.06 0 00-1.25-2.19 5.76 5.76 0 00-2-1.45 6.85 6.85 0 00-2.73-.51 6.71 6.71 0 00-5 1.83zm98 0a8.88 8.88 0 00-2.31 5.08l13.73-.03a8.413 8.413 0 00-.44-2.73 6.06 6.06 0 00-1.25-2.19 5.76 5.76 0 00-2-1.45 6.85 6.85 0 00-2.73-.51 6.71 6.71 0 00-5 1.83zm-150.7-.03a8.88 8.88 0 00-2.31 5.08h13.72a8.68 8.68 0 00-.42-2.76 6.23 6.23 0 00-1.26-2.19 5.76 5.76 0 00-2-1.45 6.85 6.85 0 00-2.73-.51 6.72 6.72 0 00-5 1.83z" fill="#FFF" fill-rule="nonzero"/><g fill-rule="nonzero" transform="translate(80.65 181.2)"><use fill="#000" xlink:href="#c"/><use fill="#70F270" xlink:href="#c"/></g></g></g></g></svg>